<svg style="height:auto;width:100%" version="1.1" viewBox="0 0 1277 648" xmlns="http://www.w3.org/2000/svg" xmlns:xlink="http://www.w3.org/1999/xlink"><defs><linearGradient id="SVGID_47_" x1="7107" x2="7106" y1="1020" y2="989" gradientTransform="matrix(-1 0 0 1 7622 0)" gradientUnits="userSpaceOnUse"><stop stop-color="#3D3E62" offset="0"/><stop stop-color="#434678" offset="1"/></linearGradient><linearGradient id="SVGID_48_" x1="7031" x2="7031" y1="1020" y2="988" gradientTransform="matrix(-1 0 0 1 7622 0)" gradientUnits="userSpaceOnUse"><stop stop-color="#3D3E62" offset="0"/><stop stop-color="#434678" offset="1"/></linearGradient><linearGradient id="SVGID_44_-7" x1="517" x2="513" y1="689" y2="692" gradientUnits="userSpaceOnUse"><stop stop-color="#CFE7F7" offset="0"/><stop stop-color="#F2F8FD" offset="1"/></linearGradient><linearGradient id="linearGradient1166" x1="7107" x2="7106" y1="1020" y2="989" gradientTransform="matrix(-1,0,0,1,7622,0)" gradientUnits="userSpaceOnUse" xlink:href="#SVGID_47_"/><linearGradient id="linearGradient1168" x1="7031" x2="7031" y1="1020" y2="988" gradientTransform="matrix(-1,0,0,1,7622,0)" gradientUnits="userSpaceOnUse" xlink:href="#SVGID_48_"/></defs><g transform="matrix(.358 0 0 .329 132 2.33)"><path d="m210 176h551c14.7 0 26.5 12.7 26.5 28.4v250c0 15.7-11.8 28.4-26.5 28.4h-551c-3.29 0-56.4 17.7-61.8 13.9-11.4-.835 37.8-22.8 35.2-28.2.238-87.9.095-176 .095-264 0-15.7 11.8-28.4 26.5-28.4z" fill="#68d0ff" style="paint-order:stroke fill markers"/><g id="XMLID_504_" transform="matrix(.568 0 0 .594 -553 581)" fill="#3ce28f" style="paint-order:stroke fill markers"><path id="XMLID_505_" d="m1740-283h173c7.15 0 13-5.73 13-12.8v-145c0-7.07-5.8-12.8-13-12.8h-13v-38.4c0-40-32.9-72.5-73.4-72.5s-73.4 32.5-73.4 72.5v38.4h-13c-7.15 0-13 5.73-13 12.8v145c0 7.07 5.8 12.8 13 12.8zm123-94.4-36.7 36.3c-2.53 2.5-5.84 3.75-9.16 3.75s-6.63-1.25-9.16-3.75l-18.3-18.1c-5.06-5-5.06-13.1 0-18.1s13.3-5 18.3 0l9.19 9.08 27.5-27.2c5.06-5 13.3-5 18.3 0 5.06 5 5.06 13.1 0 18.1zm-84.2-115c0-25.9 21.3-46.9 47.5-46.9s47.5 21.1 47.5 46.9v38.4h-95z" fill="#fff" stroke-width=".858"/></g><path d="m-154 685h394c10.5 0 19 9.3 19 20.8v183c0 11.6-8.47 20.8-19 20.8h-394c-2.36 0-40.4 13-44.2 10.2-8.15-.613 27.1-16.7 25.2-20.7.171-64.5.0681-129 .0681-193 0-11.6 8.47-20.8 19-20.8z" fill="#68d0ff" style="paint-order:stroke fill markers"/><g transform="matrix(.407 0 0 .436 -700 983)" fill="#3ce28f" style="paint-order:stroke fill markers"><path d="m1740-283h173c7.15 0 13-5.73 13-12.8v-145c0-7.07-5.8-12.8-13-12.8h-13v-38.4c0-40-32.9-72.5-73.4-72.5s-73.4 32.5-73.4 72.5v38.4h-13c-7.15 0-13 5.73-13 12.8v145c0 7.07 5.8 12.8 13 12.8zm123-94.4-36.7 36.3c-2.53 2.5-5.84 3.75-9.16 3.75s-6.63-1.25-9.16-3.75l-18.3-18.1c-5.06-5-5.06-13.1 0-18.1s13.3-5 18.3 0l9.19 9.08 27.5-27.2c5.06-5 13.3-5 18.3 0 5.06 5 5.06 13.1 0 18.1zm-84.2-115c0-25.9 21.3-46.9 47.5-46.9s47.5 21.1 47.5 46.9v38.4h-95z" fill="#fff" stroke-width=".858"/></g><path d="m2924 214h-544c-14.5 0-26.2 12.6-26.2 28.2v247c0 15.6 11.7 28.2 26.2 28.2h544c3.25 0 55.6 17.5 61 13.7 11.2-.828-37.3-22.6-34.7-27.9-.236-87.1-.094-174-.094-261 0-15.6-11.7-28.2-26.2-28.2z" fill="#68d0ff" style="paint-order:stroke fill markers"/><path d="m2598 441h97.1c4.01 0 7.29-3.37 7.29-7.53v-85.3c0-4.16-3.25-7.53-7.29-7.53h-7.29v-22.6c0-23.5-18.5-42.6-41.2-42.6s-41.2 19.1-41.2 42.6v22.6h-7.29c-4.01 0-7.29 3.37-7.29 7.53v85.3c0 4.16 3.25 7.53 7.29 7.53zm69-55.5-20.6 21.3c-1.42 1.47-3.28 2.2-5.14 2.2s-3.72-.735-5.14-2.2l-10.3-10.6c-2.84-2.94-2.84-7.7 0-10.6 2.84-2.94 7.46-2.94 10.3 0l5.16 5.34 15.4-16c2.84-2.94 7.46-2.94 10.3 0 2.84 2.94 2.84 7.7 0 10.6zm-47.2-67.6c0-15.2 11.9-27.6 26.6-27.6s26.6 12.4 26.6 27.6v22.6h-53.3z" fill="#fff" stroke-width=".493" style="paint-order:stroke fill markers"/><path d="m2533 737h-382c-10.2 0-18.4 9.47-18.4 21.2v187c0 11.8 8.2 21.2 18.4 21.2h382c2.28 0 39 13.2 42.8 10.4 7.88-.624-26.2-17.1-24.4-21.1-.165-65.7-.066-131-.066-197 0-11.8-8.2-21.2-18.4-21.2z" fill="#68d0ff" style="paint-order:stroke fill markers"/><path d="m2306 913h74.1c3.06 0 5.57-2.54 5.57-5.68v-64.4c0-3.14-2.48-5.68-5.57-5.68h-5.57v-17c0-17.8-14.1-32.2-31.4-32.2-17.3 0-31.4 14.4-31.4 32.2v17h-5.57c-3.06 0-5.57 2.54-5.57 5.68v64.4c0 3.14 2.48 5.68 5.57 5.68zm52.7-41.9-15.7 16.1c-1.08 1.11-2.5 1.66-3.92 1.66s-2.84-.555-3.92-1.66l-7.83-8.04c-2.17-2.22-2.17-5.82 0-8.04s5.69-2.22 7.83 0l3.93 4.03 11.8-12.1c2.17-2.22 5.69-2.22 7.83 0 2.17 2.22 2.17 5.82 0 8.04zm-36-51.1c0-11.5 9.12-20.8 20.3-20.8 11.2 0 20.3 9.37 20.3 20.8v17h-40.7z" fill="#fff" stroke-width=".374" style="paint-order:stroke fill markers"/></g><g id="Guides_For_Artboard" transform="matrix(.358 0 0 .329 132 2.33)"><rect y=".5" width="2800" height="1959" fill="none"/><path d="m0 1958-334-271 1990-1424 257 67.3 29.6 343-1648 1285z" fill="#68d0ff"/><g transform="matrix(1.18 0 0 1.09 -196 -178)"><polygon points="587 1614 444 1613 444 1280 215 1280 214 1708 212 1708 212 1958 214 1958 276 1958 443 1958 587 1958 602 1958 618 1958 724 1958 754 1958 823 1958 857 1958 1042 1959 1073 1959 1148 1959 1182 1959 1322 1959 1408 1959 1408 1599 1408 1281 1183 1281 1182 1599 1148 1599 1148 1523 1042 1523 1042 1425 823 1424 823 1599 724 1598 724 1712 618 1712 615 1613 584 1613" fill="#00a7f1"/><rect transform="rotate(180 266 1619)" x="213" y="1280" width="107" height="678" fill="#92deff"/><g fill="#eefcff"><polygon points="1314 1317 1259 1317 1259 1334 1314 1334"/><polygon points="1123 1556 1069 1556 1069 1574 1123 1574"/><rect transform="rotate(180 1362 1557)" x="1335" y="1549" width="54.2" height="17.5"/></g><rect transform="rotate(180 775 1626)" x="748" y="1618" width="54.2" height="17.5" fill="#cacaca"/><g fill="#eefcff"><rect transform="rotate(180 988 1718)" x="960" y="1709" width="54.2" height="17.4"/><rect transform="rotate(180 519 1636)" x="492" y="1627" width="54.2" height="17.5"/><rect transform="rotate(180 326 1318)" x="299" y="1309" width="54.2" height="17.5"/></g><rect transform="rotate(180 1219 1620)" x="1182" y="1281" width="73.2" height="678" fill="#92deff"/><rect transform="rotate(180 326 1565)" x="299" y="1556" width="54.2" height="17.5" fill="#eefcff"/><polygon points="616 1713 615 1958 931 1956 931 1425 821 1425 821 1599 722 1599 722 1713" fill="#92deff"/><g fill="#eefcff"><rect transform="rotate(180 1233 1619)" x="1205" y="1610" width="54.2" height="17.5"/><polygon points="1314 1741 1259 1741 1259 1758 1314 1758"/><rect transform="rotate(180 934 1446)" x="906" y="1438" width="54.2" height="17.5"/><rect transform="rotate(180 934 1565)" x="906" y="1556" width="54.2" height="17.5"/><rect transform="rotate(180 269 1694)" x="242" y="1686" width="54.2" height="17.5"/><rect transform="rotate(180 465 1751)" x="438" y="1742" width="54.2" height="17.5"/><rect transform="rotate(180 880 1719)" x="852" y="1710" width="54.2" height="17.5"/><polygon points="961 1841 906 1841 906 1859 961 1859"/></g><polygon points="2229 1613 2373 1613 2373 1280 2602 1279 2602 1707 2604 1707 2604 1957 2602 1957 2541 1957 2373 1957 2230 1958 2214 1958 2199 1958 2093 1958 2062 1958 1994 1958 1959 1958 1775 1958 1744 1958 1668 1958 1634 1958 1494 1958 1408 1958 1408 1599 1408 1280 1634 1280 1634 1598 1668 1598 1668 1523 1774 1522 1774 1424 1993 1424 1993 1598 2092 1598 2092 1712 2198 1711 2201 1612 2232 1612" fill="#00a7f1"/><rect x="2497" y="1280" width="107" height="678" fill="#92deff"/><g fill="#eefcff"><polygon points="1503 1318 1557 1318 1557 1336 1503 1336"/><rect x="1693" y="1556" width="54.2" height="17.5"/><rect x="1427" y="1549" width="54.2" height="17.5"/></g><rect x="2014" y="1619" width="54.2" height="17.5" fill="#cacaca"/><g fill="#eefcff"><rect x="1802" y="1710" width="54.2" height="17.5"/><rect x="2270" y="1628" width="54.2" height="17.5"/><rect x="2463" y="1310" width="54.2" height="17.5"/></g><polygon points="1560 1280 1634 1280 1634 1958 1561 1958" fill="#92deff"/><rect x="2463" y="1557" width="54.2" height="17.5" fill="#eefcff"/><polygon points="2201 1712 2201 1957 1886 1956 1885 1425 2e3 1424 2e3 1599 2095 1598 2095 1712" fill="#92deff"/><g fill="#eefcff"><rect x="1557" y="1610" width="54.2" height="17.5"/><polygon points="1503 1742 1557 1742 1557 1760 1503 1760"/><rect x="1856" y="1439" width="54.2" height="17.5"/><rect x="1856" y="1556" width="54.2" height="17.5"/><rect x="2520" y="1687" width="54.2" height="17.5"/><rect x="2325" y="1744" width="54.2" height="17.5"/><rect x="1910" y="1712" width="54.2" height="17.5"/><rect x="1856" y="1843" width="54.2" height="17.5"/></g><rect x="1389" y="1281" width="38" height="678" fill="#00a7f1"/></g><g transform="matrix(1.41 0 0 1.55 -826 398)"><path class="st2727" d="m521 702-13.9-21.8c-.32-.5-.87-.73-1.42-.68-.24.02-.48.08-.69.22-.71.46-.92 1.4-.47 2.12l14.4 22.6 2.59-1.65z" fill="#454779"/><path d="m521 702 .77-.49-13.9-21.8c-.32-.5-.87-.73-1.42-.68.04.13.07.26.15.38z" fill="url(#SVGID_44_-7)"/><path class="st2729" d="m529 703c-.81-1.89-2.78-2.95-4.61-3.87-2.97-1.49-5.95-2.97-8.92-4.46-1.23-.62-2.84-1.19-3.87-.27-.85.76-.76 2.17-.19 3.15s1.5 1.7 2.26 2.54c.76.85 1.38 1.98 1.11 3.09-.24.98-1.12 1.76-1.14 2.76-.01.62.31 1.19.41 1.8.17 1.05-.34 2.14-.14 3.18.21 1.1 1.13 1.89 2 2.59 1.21.98 2.43 1.96 3.64 2.94 1.83 1.48 4.25 3.03 6.35 1.94.99-.51 1.62-1.51 2.14-2.5 1.06-2 2.3-4.44 2.03-6.67-.22-1.81-.34-4.51-1.07-6.22z" fill="#e4a999"/><path d="m621 787s4.09 19.9-9.8 54.2.5 145 .5 145h-12s-39.6-89.6-34-129c5.65-39.1 43.3-80 55.3-70.4z" fill="#3d4f62"/><polygon class="st2729" points="526 986 525 991 536 991 537 986" fill="#e4a999"/><path d="m521 991s-1.77 3.69-3.47 4.97-21.5 4.01-23 6.81 1.03 4.33 1.26 4.33c.22 0 41.6.4 41.9 0s-.15-16.1-.15-16.1h-16.5z" fill="url(#linearGradient1166)"/><polygon class="st2729" points="601 986 602 991 611 991 611 986" fill="#e4a999"/><path d="m596 991s-1.77 3.69-3.47 4.97-21.5 4.01-23 6.81 1.03 4.33 1.26 4.33 41.6.4 41.9 0-.15-16.1-.15-16.1h-16.5z" fill="url(#linearGradient1168)"/><path class="st2733" d="m601 832s.01 0 0 0c0 0-11.1 27.3-18 35.1s-13.8 27-13.8 27-1.36-5.63-2.78-12.5c2.53-5.64 5.11-10.1 7.68-12.8 8.12-8.5 18.2-22.4 26.9-36.8z" fill="#262424" opacity=".2"/><path d="m531 873c2.6-30.2 28.8-85.2 28.8-85.2s32.4-12 61.6-1.69c-.96 10.3-9.5 28.2-19.9 45.4-8.74 14.4-18.8 28.3-26.9 36.8-2.58 2.7-5.15 7.16-7.68 12.8-14.9 33.3-27.2 105-27.2 105l-15.7-.43c0-.01 4.44-82.4 7.05-113z" fill="#3d5462"/><path class="st2727" d="m591 626c.76 3.01 1.03 6.13.69 9.22-.11 1.01-.18 2.04-.14 3.35.06 1.65.87 8.24-.48 9.2-.91.65-1.54 5.03-2.57 4.59s-1.51-11.2-2.29-12c-3.84-3.99-5.68 2.3-12.3-10.9-1.37-2.74-6.16-.78-8.93.48-3 1.37-4.46 4.75-7.38 5.98-5.55 2.33-13.7.86-18.4-2.72-3.54-2.73-5.9-7.05-5.97-11.5-.06-4.47 2.29-8.98 6.17-11.2.89-.51 1.88-.91 2.91-.89.83.02 1.62.31 2.41.56 3.65 1.16 7.55 1.51 11.4 1.02 4.71-.61 9.16-2.48 13.8-3.66 2.66-.68 5.56-1.11 8.07-.01 3.18 1.39 7.05 6.24 9.21 9.86 2.06 3.14 2.96 5.27 3.82 8.65z" fill="#454779"/><g fill="#e4a999"><path class="st2729" d="m574 663c1.41-.57 2.84-1.42 4.15-2.36 1.46-1.05 2.77-2.2 3.72-3.2 1.17-1.23 2.7-3.71 3.23-5.37.23-.71.38-1.38.5-2.05.17-.96.27-1.9.31-2.82.1-2.6-.15-5.14.33-8.14l4.32 13.2 10.5 8.17-16 12.3-4.06-3.6z"/><path class="st2729" d="m552 644s2.85 5.11 2.9 8.43-.25 6.04 1.73 5.73 6.79-2.26 6.79-2.26l-4.57-10.6z"/><path class="st2735" d="m574 663c1.41-.57 2.84-1.42 4.15-2.36 1.46-1.05 2.77-2.2 3.72-3.2 1.17-1.23 2.7-3.71 3.23-5.37.23-.71.38-1.38.5-2.05l.01-.01s.75 2.09-2.46 9.64c-.82 1.93-5.15 6.32-5.43 6.66z" opacity=".5"/><path class="st2729" d="m548 638c-3.21-3.56-1.07-3.73 1.5-5.32 2.4-1.48 5.06-4.46 6.99-5.84 2.04-1.46 4.19-2.61 6.41-3.79 3.8-2.02 7.12.85 8.86 2.99.03.04.06.08.09.11 1.64 2.07 4.79 7.35 6.53 8.72 1.77 1.4-.75-7.97 2.17-10.3.64-.51 1.26-.94 2.19-1.09 1.75-.29 3.62.55 4.65 2.09 1.39 2.08 1.43 4.76.96 7.14s-1.4 4.64-1.78 7.04c-.48 3-.23 5.54-.33 8.14-.04.92-.13 1.86-.31 2.82-.12.67-.27 1.35-.5 2.05-.53 1.66-2.06 4.14-3.23 5.37-.95 1-2.26 2.15-3.72 3.2-1.31.94-2.75 1.79-4.15 2.36-1.11.45-2.21.74-3.21.74-1.23 0-2.33-.24-3.35-.65-3.49-1.4-5.98-4.87-8.79-8.18-4.58-5.39-6.26-12.4-11-17.6z"/><path class="st2735" d="m560 628c-5.39 2.09-13.9 6.78-10.2 4.09 2.4-1.48 4.63-4.18 6.57-5.57 2.04-1.46 4.19-2.61 6.41-3.79 3.8-2.02 7.12.85 8.86 2.99.03.04.06.08.09.11-2.48-1.11-6.49.13-11.8 2.17z" opacity=".5"/></g><path d="m624 702c-5.3-29-25.5-47.2-25.5-47.2s-9.89 4.06-17.9 11.7c-5.72 5.4-17.2 38.8-23.4 71.1-9.32-5.19-18-14.8-26.3-26.6l-9.99 9.81c7.26 14.5 19.6 31.7 36.3 39.4-.35 4.94-.43 12.2-.18 16.5 2.12 37.5 53.8 28.7 62 17.9 8.8-11.7 10.3-63.6 4.96-92.6z" fill="#d1a945"/><path class="st2737" d="m556 760s18.2-.76 27.2-7.13c9.02-6.36 19.3-44.7 20.6-48.8 1.72-5.79 2.48-26.5 2.48-26.5s3.95 17.6 3.89 28.3c-.21 39.2-17 48.2-23.2 50.6-12.5 4.77-30.9 3.55-30.9 3.55z" fill="#a5a6a9" opacity=".5"/></g><path d="m916 1080-69.1 17.2 4.31 237 62.4 16.7 67.7-39.6-1.92-209z" fill="#fff" stroke-width="2.92"/><path d="m863 1074c-15.4 0-27.8 14.8-27.8 32.9v220c0 18.2 12.4 32.9 27.8 32.9h102c15.4 0 27.8-14.8 27.8-32.9v-220c0-18.2-12.4-32.9-27.8-32.9zm41.7 11h18.5c2.57 0 4.64 2.45 4.64 5.51 0 3.04-2.06 5.51-4.64 5.51h-18.5c-2.57 0-4.64-2.45-4.64-5.51 0-3.04 2.06-5.51 4.64-5.51zm-46.4 22h111c2.57 0 4.64 2.45 4.64 5.51v187c0 3.04-2.06 5.51-4.64 5.51h-111c-2.57 0-4.64-2.45-4.64-5.51v-187c0-3.04 2.06-5.51 4.64-5.51zm69.1 55.1c-3.8.301-8.11 3.11-10.7 6.88-2.39 3.38-4.53 8.46-3.78 13.4 4.17.128 8.5-2.71 11-6.52 2.36-3.56 4.14-8.59 3.47-13.7zm-25.8 19.6c-5.48 0-11.4 4.26-15.1 11-5.2 9.5-4.34 27 4.06 42.3 2.99 5.42 7.22 11.6 12.4 11.7 4.67.085 5.82-3.38 12.2-3.44 6.35-.043 7.5 3.47 12.2 3.44 5.26-.043 9.73-6.58 12.8-12 2.14-3.9 2.97-5.88 4.64-10.3-12.2-5.45-14.4-26.2-2.32-34.1-3.69-5.45-8.76-8.59-13.6-8.59-6.46 0-9.12 3.78-13.6 3.78-4.59 0-8.03-3.78-13.6-3.78zm12.4 137c6.55 0 11.9 6.3 11.9 14.1s-5.31 14.1-11.9 14.1c-6.55 0-11.9-6.3-11.9-14.1s5.31-14.1 11.9-14.1z" fill="#00a7f1" stroke-width="10.1"/><path d="m2032 1086-69.1 17.2 4.31 237 62.4 13c41.4-1.69 68-8.77 67.7-35.9l-1.92-209z" fill="#fff" stroke-width="2.92"/><g><path d="m1979 1080c-15 0-27.2 14.6-27.2 32.6v216c0 17.9 12.2 32.6 27.2 32.6h99.6c15 0 27.2-14.6 27.2-32.6v-216c0-17.9-12.2-32.6-27.2-32.6zm40.8 10.8h18.1c2.51 0 4.5 2.41 4.5 5.42s-2.01 5.39-4.5 5.39h-18.1c-2.51 0-4.53-2.4-4.53-5.39 0-3.01 2.02-5.42 4.53-5.42zm-45.3 21.6h109c2.51 0 4.53 2.41 4.53 5.42v184c0 3.01-2.02 5.42-4.53 5.42h-109c-2.51 0-4.53-2.41-4.53-5.42v-184c0-3.01 2.02-5.42 4.53-5.42zm85 214c5.85-.03 5.85 3.72 5.85 7 0 3.32 0 7.03-5.87 7.06-19.6.075-58.7-.03-58.7-.03-5.87 0-5.85-3.75-5.85-7.03 0-3.32-.029-7.06 5.87-7.06l58.7.056s-2.76.012 0-1e-4z" fill="#00a7f1" stroke-width="9.89"/><path d="m2037 1177c-.448 0-.896-.268-1.34-.535-1.12-.803-1.34-2.41-.672-3.75l3.81-6.69c.672-1.34 2.02-1.61 3.14-.803 1.12.803 1.34 2.41.672 3.75l-3.81 6.69c-.224.803-.896 1.34-1.79 1.34zm-20.2-1.07c-.672 0-1.57-.535-1.79-1.34l-2.91-5.62c-.672-1.34-.448-2.94.672-3.75 1.12-.803 2.46-.535 3.14.803l2.91 5.62c.672 1.34.448 2.94-.672 3.75-.448.268-.896.535-1.34.535zm-16.4 50.6c0 2.94-2.02 5.35-4.48 5.35-2.46 0-4.48-2.41-4.48-5.35v-24.1c0-2.94 2.02-5.35 4.48-5.35 2.46 0 4.48 2.41 4.48 5.35zm62.7 0c0 2.94-2.02 5.35-4.48 5.35-2.46 0-4.48-2.41-4.48-5.35v-24.1c0-2.94 2.02-5.35 4.48-5.35 2.46 0 4.48 2.41 4.48 5.35zm-40.3 29.4c0 2.94-2.02 5.35-4.48 5.35-2.46 0-4.48-2.41-4.48-5.35v-24.1c0-2.94 2.02-5.35 4.48-5.35 2.46 0 4.48 2.41 4.48 5.35zm17.9 0c0 2.94-2.02 5.35-4.48 5.35-2.46 0-4.48-2.41-4.48-5.35v-24.1c0-2.94 2.02-5.35 4.48-5.35 2.46 0 4.48 2.41 4.48 5.35z" fill="#099fd8" stroke-width="2.45"/><path d="m2005 1197v40.1c0 2.94 2.02 5.35 4.48 5.35h35.8c2.46 0 4.48-2.41 4.48-5.35v-40.1zm22.4-26.8c-13.4 0-21.7 9.64-22.4 21.4h44.8c-.672-11.8-8.96-21.4-22.4-21.4zm-8.96 15c-1.34 0-2.24-1.07-2.24-2.68 0-1.61.896-2.68 2.24-2.68 1.34 0 2.24 1.07 2.24 2.68 0 1.34-.896 2.68-2.24 2.68zm17.9 0c-1.34 0-2.24-1.07-2.24-2.68 0-1.61.896-2.68 2.24-2.68 1.34 0 2.24 1.07 2.24 2.68 0 1.34-.896 2.68-2.24 2.68z" fill="#00a7f1" stroke-width="2.45"/></g><path d="m1338 897 2.96 203 255 31.7 2.49-223z" fill="#fff" stroke-width="2.92"/><path d="m1355 885c-18.8 0-34.1 17.3-34.1 38.7v180c0 21.3 15.3 38.7 34.1 38.7h79.4v12.8c0 7.09 5.09 12.8 11.4 12.8h45.3c6.27 0 11.4-6.64 11.4-12.8v-12.8h79.4c18.8 0 34.1-17.3 34.1-38.7v-180c0-21.3-15.3-38.7-34.1-38.7zm0 25.7h227c6.27 0 11.4 5.79 11.4 12.8v154c0 7.09-5.09 12.8-11.4 12.8h-227c-6.27 0-11.4-5.79-11.4-12.8v-154c0-7.09 5.09-12.8 11.4-12.8zm227 192c6.52 0 11.7 5.94 11.7 13.2 0 7.37-5.2 13.2-11.7 13.2-6.49 0-11.7-5.88-11.7-13.2 0-7.34 5.23-13.2 11.7-13.2zm-193 77.6c-6.27 0-11.4 12.8-11.4 12.8v12.8h182v-12.8c0-7.09-5.09-12.8-11.4-12.8z" fill="#00a7f1" stroke-width="12.1"/><path d="m79.6 983-3.5 180 237 1.39-1.92-182z" fill="#fff" stroke-width="2.92"/><path d="m2645 1041-2.83 153 192 1.18-1.56-155z" fill="#fff" stroke-width="2.92"/><g fill="#00a7f1"><path d="m2826 1034h-168c-19.4 0-31.4 18.3-31.4 31.5v107c0 16 13.4 29.4 29.2 29.4h171c15.9 0 29.2-13.4 29.2-29.4v-108c0-15.7-15.2-30.4-31.4-30.4zm-175 91.8c-4.33 0-7.85-3.52-7.85-7.87s3.52-7.87 7.85-7.87 7.84 3.52 7.84 7.87-3.52 7.87-7.84 7.87zm170 65.5h-146v-146h146z" stroke-width="5.24"/><path d="m1519 948-99.7 41.8c-1.75.734-2.5 2.53-2.29 4.19.102.811-24.5 20.3-23.9 20.9.41.452 25.9-17.9 26.5-17.7l25.4 8.06 9.44 32.3c.989 3.38 4.97 4.4 7.27 1.87l13.2-14.4 25.8 20.3c.794.627-16.2 18.5-15.3 18.6.825.102 19.5-17.6 20.2-17.8 1.68-.639 3.05-2.15 3.46-4.26l17-87.7c.835-4.3-3.1-7.87-6.9-6.28zm-12.5 19.5-46.4 44.1c-.464.44-.756 1.05-.829 1.71l-1.78 17.1c-.039.557-.782.632-.936.105l-7.35-25.5c-.335-1.16.102-2.43 1.07-3.07l54.8-36.5c1.26-.84 2.55 1.03 1.44 2.08z" stroke-width="7.4" style="paint-order:stroke fill markers"/><path d="m91.7 966c-16.6 0-30.2 15.6-30.2 34.5v150c0 8.85 3.06 16.9 7.93 23h-28.1c0 19.1 13.5 34.5 30.2 34.5h242c16.7 0 30.2-15.4 30.2-34.5h-28.1c4.86-6.14 7.93-14.2 7.93-23v-150c0-18.9-13.7-34.5-30.2-34.5zm0 23h201c5.69 0 10.1 5.01 10.1 11.5v150c0 6.5-4.38 11.5-10.1 11.5h-201c-5.69 0-10.1-5.01-10.1-11.5v-150c0-6.5 4.38-11.5 10.1-11.5z" stroke-width="10.8"/><path d="m240 1028-88 35.9c-1.54.628-2.2 2.17-2.01 3.59.0892.694-21.5 17.5-21.1 17.9.361.388 22.8-15.3 23.4-15.2l22.3 6.91 8.35 27.7c.872 2.9 4.38 3.77 6.41 1.6l11.6-12.4 22.7 17.5c.7.537-14.2 15.8-13.4 15.9.727.087 17.1-15.1 17.8-15.3 1.47-.548 2.69-1.84 3.05-3.65l15-75.1c.735-3.68-2.73-6.74-6.08-5.38zm-11 16.7-40.9 37.8c-.409.377-.666.899-.73 1.47l-1.57 14.6c-.0343.478-.688.541-.826.089l-6.48-21.8c-.296-.998.0891-2.08.944-2.63l48.3-31.3c1.11-.719 2.25.878 1.27 1.78z" stroke-width="6.42" style="paint-order:stroke fill markers"/><path d="m2787 1073-80.5 32.6c-1.41.572-2.01 1.98-1.84 3.27.081.632-19.7 15.8-19.2 16.3.33.352 20.8-14 21.4-13.8l20.5 6.28 7.64 25.2c.797 2.63 4 3.43 5.86 1.46l10.6-11.2 20.7 15.8c.64.488-13 14.4-12.3 14.5.665.079 15.7-13.6 16.3-13.9 1.35-.498 2.46-1.68 2.79-3.32l13.8-68.4c.672-3.35-2.49-6.14-5.55-4.89zm-10.1 15.2-37.3 34.4c-.374.343-.609.817-.667 1.33l-1.44 13.3c-.03.434-.629.493-.756.081l-5.92-19.9c-.27-.908.081-1.89.86-2.4l44.1-28.5c1.02-.655 2.06.798 1.16 1.62z" stroke-width="5.86" style="paint-order:stroke fill markers"/></g><g transform="translate(284 -197)"><polygon points="1518 738 1426 819 1471 680" fill="#187ca8"/><path d="m1719 910 220-599c7.3-29.1-21.5-25.5-21.5-25.5l-660 204s-33.4 9.5-11.6 33.6l166 124 259-134-200 167 200 240c0-.1 31.3 32.9 47.5-9.9z" fill="#f1faff"/><polygon points="1471 680 1829 398 1389 631 1426 819" fill="#8fd1ef"/><path d="m1426 824h-.3c-2.3-.1-4.1-1.8-4.6-4l-36.5-188c-.4-2.1.6-4.3 2.5-5.3l440-233c2.3-1.2 5.1-.5 6.5 1.7 1.4 2.1.9 5-1.1 6.6l-357 282-44.7 137c-.6 2-2.5 3.4-4.6 3.4zm-30.9-190 32.1 166 39.2-120c.3-.9.9-1.8 1.6-2.4l315-249z" fill="#f1faff"/></g><g transform="matrix(-1.41 0 0 1.55 3762 399)"><path class="st2727" d="m521 702-13.9-21.8c-.32-.5-.87-.73-1.42-.68-.24.02-.48.08-.69.22-.71.46-.92 1.4-.47 2.12l14.4 22.6 2.59-1.65z" fill="#454779"/><path d="m521 702 .77-.49-13.9-21.8c-.32-.5-.87-.73-1.42-.68.04.13.07.26.15.38z" fill="url(#SVGID_44_-7)"/><path class="st2729" d="m529 703c-.81-1.89-2.78-2.95-4.61-3.87-2.97-1.49-5.95-2.97-8.92-4.46-1.23-.62-2.84-1.19-3.87-.27-.85.76-.76 2.17-.19 3.15s1.5 1.7 2.26 2.54c.76.85 1.38 1.98 1.11 3.09-.24.98-1.12 1.76-1.14 2.76-.01.62.31 1.19.41 1.8.17 1.05-.34 2.14-.14 3.18.21 1.1 1.13 1.89 2 2.59 1.21.98 2.43 1.96 3.64 2.94 1.83 1.48 4.25 3.03 6.35 1.94.99-.51 1.62-1.51 2.14-2.5 1.06-2 2.3-4.44 2.03-6.67-.22-1.81-.34-4.51-1.07-6.22z" fill="#e4a999"/><path d="m621 787s4.09 19.9-9.8 54.2.5 145 .5 145h-12s-39.6-89.6-34-129c5.65-39.1 43.3-80 55.3-70.4z" fill="#3d4f62"/><polygon class="st2729" points="536 991 537 986 526 986 525 991" fill="#e4a999"/><path d="m521 991s-1.77 3.69-3.47 4.97-21.5 4.01-23 6.81 1.03 4.33 1.26 4.33c.22 0 41.6.4 41.9 0s-.15-16.1-.15-16.1h-16.5z" fill="url(#linearGradient1166)"/><polygon class="st2729" points="611 991 611 986 601 986 602 991" fill="#e4a999"/><path d="m596 991s-1.77 3.69-3.47 4.97-21.5 4.01-23 6.81 1.03 4.33 1.26 4.33 41.6.4 41.9 0-.15-16.1-.15-16.1h-16.5z" fill="url(#linearGradient1168)"/><path class="st2733" d="m601 832s.01 0 0 0c0 0-11.1 27.3-18 35.1s-13.8 27-13.8 27-1.36-5.63-2.78-12.5c2.53-5.64 5.11-10.1 7.68-12.8 8.12-8.5 18.2-22.4 26.9-36.8z" fill="#262424" opacity=".2"/><path d="m531 873c2.6-30.2 28.8-85.2 28.8-85.2s32.4-12 61.6-1.69c-.96 10.3-9.5 28.2-19.9 45.4-8.74 14.4-18.8 28.3-26.9 36.8-2.58 2.7-5.15 7.16-7.68 12.8-14.9 33.3-27.2 105-27.2 105l-15.7-.43c0-.01 4.44-82.4 7.05-113z" fill="#3d5462"/><path class="st2727" d="m591 626c.76 3.01 1.03 6.13.69 9.22-.11 1.01-.18 2.04-.14 3.35.06 1.65.87 8.24-.48 9.2-.91.65-1.54 5.03-2.57 4.59s-1.51-11.2-2.29-12c-3.84-3.99-5.68 2.3-12.3-10.9-1.37-2.74-6.16-.78-8.93.48-3 1.37-4.46 4.75-7.38 5.98-5.55 2.33-13.7.86-18.4-2.72-3.54-2.73-5.9-7.05-5.97-11.5-.06-4.47 2.29-8.98 6.17-11.2.89-.51 1.88-.91 2.91-.89.83.02 1.62.31 2.41.56 3.65 1.16 7.55 1.51 11.4 1.02 4.71-.61 9.16-2.48 13.8-3.66 2.66-.68 5.56-1.11 8.07-.01 3.18 1.39 7.05 6.24 9.21 9.86 2.06 3.14 2.96 5.27 3.82 8.65z" fill="#454779"/><g fill="#e4a999"><path class="st2729" d="m574 663c1.41-.57 2.84-1.42 4.15-2.36 1.46-1.05 2.77-2.2 3.72-3.2 1.17-1.23 2.7-3.71 3.23-5.37.23-.71.38-1.38.5-2.05.17-.96.27-1.9.31-2.82.1-2.6-.15-5.14.33-8.14l4.32 13.2 10.5 8.17-16 12.3-4.06-3.6z"/><path class="st2729" d="m552 644s2.85 5.11 2.9 8.43-.25 6.04 1.73 5.73 6.79-2.26 6.79-2.26l-4.57-10.6z"/><path class="st2735" d="m574 663c1.41-.57 2.84-1.42 4.15-2.36 1.46-1.05 2.77-2.2 3.72-3.2 1.17-1.23 2.7-3.71 3.23-5.37.23-.71.38-1.38.5-2.05l.01-.01s.75 2.09-2.46 9.64c-.82 1.93-5.15 6.32-5.43 6.66z" opacity=".5"/><path class="st2729" d="m548 638c-3.21-3.56-1.07-3.73 1.5-5.32 2.4-1.48 5.06-4.46 6.99-5.84 2.04-1.46 4.19-2.61 6.41-3.79 3.8-2.02 7.12.85 8.86 2.99.03.04.06.08.09.11 1.64 2.07 4.79 7.35 6.53 8.72 1.77 1.4-.75-7.97 2.17-10.3.64-.51 1.26-.94 2.19-1.09 1.75-.29 3.62.55 4.65 2.09 1.39 2.08 1.43 4.76.96 7.14s-1.4 4.64-1.78 7.04c-.48 3-.23 5.54-.33 8.14-.04.92-.13 1.86-.31 2.82-.12.67-.27 1.35-.5 2.05-.53 1.66-2.06 4.14-3.23 5.37-.95 1-2.26 2.15-3.72 3.2-1.31.94-2.75 1.79-4.15 2.36-1.11.45-2.21.74-3.21.74-1.23 0-2.33-.24-3.35-.65-3.49-1.4-5.98-4.87-8.79-8.18-4.58-5.39-6.26-12.4-11-17.6z"/><path class="st2735" d="m560 628c-5.39 2.09-13.9 6.78-10.2 4.09 2.4-1.48 4.63-4.18 6.57-5.57 2.04-1.46 4.19-2.61 6.41-3.79 3.8-2.02 7.12.85 8.86 2.99.03.04.06.08.09.11-2.48-1.11-6.49.13-11.8 2.17z" opacity=".5"/></g><path d="m624 702c-5.3-29-25.5-47.2-25.5-47.2s-9.89 4.06-17.9 11.7c-5.72 5.4-17.2 38.8-23.4 71.1-9.32-5.19-18-14.8-26.3-26.6l-9.99 9.81c7.26 14.5 19.6 31.7 36.3 39.4-.35 4.94-.43 12.2-.18 16.5 2.12 37.5 53.8 28.7 62 17.9 8.8-11.7 10.3-63.6 4.96-92.6z" fill="#77e447"/><path class="st2737" d="m556 760s18.2-.76 27.2-7.13c9.02-6.36 19.3-44.7 20.6-48.8 1.72-5.79 2.48-26.5 2.48-26.5s3.95 17.6 3.89 28.3c-.21 39.2-17 48.2-23.2 50.6-12.5 4.77-30.9 3.55-30.9 3.55z" fill="#a5a6a9" opacity=".5"/></g></g></svg>