<svg width="128" height="128" version="1.1" viewBox="0 0 128 128" xmlns="http://www.w3.org/2000/svg">
 <path d="m23.35 10.03h72.57c11.26 0 20.32 9.063 20.32 20.32v75.48c0 11.26-9.063 20.32-20.32 20.32h-72.57c-11.26 0-20.32-9.063-20.32-20.32v-75.48c0-11.26 9.063-20.32 20.32-20.32z" fill="#118ae0" stroke-linecap="round" stroke-linejoin="round" stroke-width="1.928"/>
 <g transform="matrix(1.109 0 0 1.168 77.51 41.9)">
  <g transform="matrix(35.11,0,0,33.72,6982,-7864)">
   <path d="m-198 232.2-2.355 0.8799c-0.0318 0.1059-0.0644 0.2585 0.0381 0.3154l1.901 1.055c0.3137 0.1741 0.6346 0.1816 0.6703 0.0181l0.1214-2.013c0.0162-0.1499-0.1315-0.3463-0.3758-0.2553z" fill="#118ae0" stroke-width="13.38"/>
   <path d="m-198 232.4-1.841 0.8284c-0.065 0.0305-0.0573 0.13 0.0118 0.1476l0.5217 0.1339 0.2151 0.6354c0.0212 0.0662 0.1041 0.0825 0.1491 0.0295l0.2568-0.3017 0.5378 0.3786c0.0657 0.0464 0.1555 5e-3 0.1692-0.0784l0.1508-1.667c0.0184-0.1348-0.0847-0.1455-0.1716-0.1067zm-0.0857 0.3112-0.9074 0.9077c-0.0105 9e-3 -0.0141 0.0216-0.0146 0.0349l-0.0251 0.3429c-4.6e-4 0.0125-0.0139 0.0142-0.0203 4e-3l-0.1672-0.5009c-5e-3 -0.0223 6.6e-4 -0.0486 0.019-0.0625l1.083-0.7654c0.0242-0.0189 0.0525 0.019 0.0322 0.0401z" fill="#fff" stroke-width="11.36"/>
  </g>
 </g>
 <g transform="translate(-.02592 .1555)" fill="#fff" stroke-linecap="round" stroke-linejoin="round">
  <path d="m30.87 55.23c-0.3958-0.05553-0.7983 0.04355-1.119 0.2755l-28.03 17.37c-0.6673 0.4832-0.2723 1.915 0.2261 2.561 0.4992 0.6472 1.445 0.7792 2.113 0.2948l28.03-17.36c0.6678-0.4838 0.8041-1.401 0.3042-2.047-0.2398-0.31-1.129-1.031-1.524-1.086z" color="#000000" stroke-width=".8378" style="-inkscape-stroke:none"/>
  <path d="m52.09 64.24-36.09 29.47c-0.7417 0.6391-0.1997 2.383 0.4395 3.125 0.6391 0.7417 1.758 0.8247 2.5 0.1855l36.09-29.47c0.7417-0.6391 0.8247-1.758 0.1855-2.5-0.6391-0.7417-2.383-1.45-3.125-0.8105z" color="#000000" style="-inkscape-stroke:none"/>
  <path d="m68.44 87.42c-0.7314-0.6503-2.293-1.203-2.944-0.4722l-32.46 35.16c-0.6503 0.7314-0.1427 2.47 0.5884 3.121 0.7314 0.6503 1.851 0.5847 2.502-0.1465l32.46-35.16c0.6503-0.7314 0.5847-1.851-0.1465-2.502z" color="#000000" style="-inkscape-stroke:none"/>
  <path d="m99.59 89.62c-0.4629 0.08289-0.874 0.3464-1.143 0.7324l-22.58 34.33c-0.559 0.8031 0.3457 1.907 1.149 2.467 0.8035 0.5603 1.909 0.3626 2.469-0.4414l22.58-34.33c0.559-0.8031 0.3614-1.907-0.4414-2.467-0.3859-0.2692-1.57-0.3739-2.033-0.291z" color="#000000" style="-inkscape-stroke:none"/>
 </g>
</svg>