<svg width="139.7" height="156.1" version="1.1" viewBox="0 0 140 156" xmlns="http://www.w3.org/2000/svg">
 <rect x="-.503" y="-.595" width="141" height="158" rx="0" ry="0" fill="#fff" style="paint-order:stroke fill markers"/>
 <g fill="#66acdd" stroke="#addcff" stroke-width="1.2">
  <path d="m98 51.5 18.3 6.9-22.3 6.33z"/>
  <path d="m22 57.3 14.3-6.31 6.02 12.9z"/>
 </g>
 <path d="m46.39 14.45h40.04c6.212 0 11.21 5.104 11.21 11.44v42.51c0 6.342-5 11.44-11.21 11.44h-40.04c-6.212 0-11.21-5.104-11.21-11.44v-42.51c0-6.342 5-11.44 11.21-11.44z" fill="#118ae0" stroke-width="1.075"/>
 <path d="m70.38 58.93c-0.4035-0.3662-1.265-0.6775-1.624-0.2659l-17.91 19.8c-0.3588 0.4119-0.07873 1.391 0.3246 1.758 0.4035 0.3662 1.021 0.3293 1.38-0.08251l17.91-19.8c0.3588-0.4119 0.3226-1.042-0.08082-1.409z" color="#000000" fill="#fff" stroke-width=".5574" style="-inkscape-stroke:none"/>
 <path d="m95.43 9.726-50.59 19.52c-0.6831 2.349-1.383 5.734 0.8184 6.996l15.14 8.678c4.275-2.991 4.505-0.0357 4.837 2.772l20.86 11.95c1.939-2.249 4.353-2.29 4.32 1.983 3.184 0.7879 9.477 1.263 10.08-1.581l2.607-44.65c0.348-3.325-2.824-7.681-8.073-5.663z" fill="#118ae0" stroke-width="292.1"/>
 <path d="m93.62 17.59-39.54 18.38c-1.396 0.6765-1.231 2.883 0.2535 3.274l11.21 2.97 4.621 14.09c0.4554 1.468 2.237 1.83 3.202 0.6544l5.517-6.693 11.55 8.397c1.411 1.029 3.341 0.111 3.634-1.739l3.24-36.97c0.3952-2.989-1.819-3.227-3.685-2.366zm-1.841 6.904-19.49 20.13c-0.2256 0.1996-0.3136 0.7742-0.3136 0.7742l-0.5392 7.605c-0.0096 0.2773-0.2986 0.315-0.436 0.08872l-3.592-11.11c-0.1074-0.4947 0.0142-1.078 0.4081-1.386l23.27-16.98c0.5198-0.4192 1.128 0.4215 0.6917 0.8895z" fill="#fff" stroke-width="248"/>
 <g transform="matrix(.3424 0 0 .3571 64.91 41.71)" fill="#fff" stroke="#118ae0" stroke-linejoin="round" stroke-width="21.06" style="paint-order:markers stroke fill">
  <path d="m62.87 72.08-13.71 13.56-33.47-12.16 0.2962 35.58 46.8 17.64 47.4-17.03v-40.44l14.81-6.081-15.4-16.12-18.37-6.385 0.2962 5.816 11.26 3.914-39.7 15.06-39.1-14.45 11.26-4.257v-6.385l-19.25 7.906-15.11 15.2 47.4 17.64 14.81-15.2 14.81 15.2 27.25-10.03 0.2962 34.36-42.06 15.51z" style="paint-order:markers stroke fill"/>
  <path d="m84.01 15.66 4.07-1.372-0.0244 31.33-25.16 9.524-24.51-9.568 0.4189-31.07 24.55-9.506 24.73 9.284-24.86 10.13-0.1594 25.81 20.95-7.963z" style="paint-order:markers stroke fill"/>
 </g>
 <g stroke-linecap="round" stroke-linejoin="round">
  <g transform="matrix(.5517 0 0 .5632 33.49 8.725)" fill="#fff">
   <path d="m30.87 55.23c-0.3958-0.05553-0.7983 0.04355-1.119 0.2755l-28.03 17.37c-0.6673 0.4832-0.2723 1.915 0.2261 2.561 0.4992 0.6472 1.445 0.7792 2.113 0.2948l28.03-17.36c0.6678-0.4838 0.8041-1.401 0.3042-2.047-0.2398-0.31-1.129-1.031-1.524-1.086z" color="#000000" stroke-width=".8378" style="-inkscape-stroke:none"/>
   <path d="m52.09 64.24-36.09 29.47c-0.7417 0.6391-0.1997 2.383 0.4395 3.125 0.6391 0.7417 1.758 0.8247 2.5 0.1855l36.09-29.47c0.7417-0.6391 0.8247-1.758 0.1855-2.5-0.6391-0.7417-2.383-1.45-3.125-0.8105z" color="#000000" style="-inkscape-stroke:none"/>
  </g>
  <g stroke-width="2.45" paint-order="stroke fill markers">
   <path d="m20.5 105c-.008-10.7-.108-21.4-.095-32.1l38.3 13.7 9.9-12.3-.133 52.9zm49.4-30.4 9.32 12.1 39.5-13.7c.03 0 .036 7.13.01 15.9l-.044 15.8-49 22.4z" fill="#66acdd" stroke="#66acdd"/>
   <path d="m10.5 68.1c3.1-3.52 5.74-6.3 9.08-10l.547-.637 48.2 15.1-9.68 13c-16.1-5.7-32.1-11.6-48.1-17.5zm59.3 4.42 49.4-14.3.485.496c.267.272 2.36 2.6 4.65 5.18l4.16 4.68-48.7 17.1z" fill="#addcff" stroke="#addcff"/>
  </g>
 </g>
 <g aria-label="Telegram.exe">
  <path d="m33.93 147.3h-1.197v-8.446h-2.966v-1.051h7.116v1.051h-2.953z"/>
  <path d="m39.8 140q0.9044 0 1.569 0.399t1.011 1.13q0.3591 0.7182 0.3591 1.689v0.7049h-4.881q0.0266 1.21 0.6118 1.849 0.5985 0.6251 1.662 0.6251 0.6783 0 1.197-0.1197 0.532-0.133 1.091-0.3724v1.024q-0.5453 0.2394-1.077 0.3458-0.532 0.1197-1.264 0.1197-1.024 0-1.796-0.4123t-1.21-1.224q-0.4256-0.8113-0.4256-2.008 0-1.17 0.3857-2.008 0.399-0.8379 1.104-1.29 0.7182-0.4522 1.662-0.4522zm-0.0133 0.9576q-0.8379 0-1.33 0.5453-0.4788 0.532-0.5719 1.49h3.631q-0.0133-0.9044-0.4256-1.463-0.4123-0.5719-1.303-0.5719z"/>
  <path d="m45.52 147.3h-1.17v-10.11h1.17z"/>
  <path d="m50.35 140q0.9044 0 1.569 0.399t1.011 1.13q0.3591 0.7182 0.3591 1.689v0.7049h-4.881q0.0266 1.21 0.6118 1.849 0.5985 0.6251 1.662 0.6251 0.6783 0 1.197-0.1197 0.532-0.133 1.091-0.3724v1.024q-0.5453 0.2394-1.077 0.3458-0.532 0.1197-1.264 0.1197-1.024 0-1.796-0.4123t-1.21-1.224q-0.4256-0.8113-0.4256-2.008 0-1.17 0.3857-2.008 0.399-0.8379 1.104-1.29 0.7182-0.4522 1.662-0.4522zm-0.0133 0.9576q-0.8379 0-1.33 0.5453-0.4788 0.532-0.5719 1.49h3.631q-0.0133-0.9044-0.4256-1.463-0.4123-0.5719-1.303-0.5719z"/>
  <path d="m57.43 140q0.7049 0 1.264 0.266 0.5719 0.266 0.9709 0.8113h0.0665l0.1596-0.9443h0.931v7.248q0 1.53-0.7847 2.301-0.7714 0.7714-2.407 0.7714-1.569 0-2.567-0.4522v-1.077q1.051 0.5586 2.633 0.5586 0.9177 0 1.436-0.5453 0.532-0.532 0.532-1.463v-0.2793q0-0.1596 0.0133-0.4522 0.0133-0.3059 0.0266-0.4256h-0.0532q-0.7182 1.077-2.208 1.077-1.383 0-2.168-0.9709-0.7714-0.9709-0.7714-2.713 0-1.702 0.7714-2.7 0.7847-1.011 2.155-1.011zm0.1596 0.9842q-0.8911 0-1.383 0.7182-0.4921 0.7049-0.4921 2.022t0.4788 2.022q0.4788 0.6916 1.423 0.6916 1.077 0 1.569-0.5719 0.4921-0.5852 0.4921-1.875v-0.2793q0-1.45-0.5054-2.088t-1.583-0.6384z"/>
  <path d="m66.22 140q0.1995 0 0.4256 0.0266 0.2261 0.0133 0.4123 0.0532l-0.1463 1.077q-0.1729-0.0399-0.3857-0.0665t-0.3857-0.0266q-0.5453 0-1.024 0.3059-0.4788 0.2926-0.7714 0.8379-0.2793 0.532-0.2793 1.25v3.804h-1.17v-7.129h0.9576l0.133 1.303h0.0532q0.3325-0.5852 0.8778-1.011 0.5586-0.4256 1.303-0.4256z"/>
  <path d="m70.63 140q1.303 0 1.928 0.5719t0.6251 1.822v4.854h-0.8512l-0.2261-1.011h-0.0532q-0.4655 0.5852-0.9842 0.8645t-1.41 0.2793q-0.9709 0-1.609-0.5054-0.6384-0.5187-0.6384-1.609 0-1.064 0.8379-1.636 0.8379-0.5852 2.58-0.6384l1.21-0.0399v-0.4256q0-0.8911-0.3857-1.237t-1.091-0.3458q-0.5586 0-1.064 0.1729-0.5054 0.1596-0.9443 0.3724l-0.3591-0.8778q0.4655-0.2527 1.104-0.4256 0.6384-0.1862 1.33-0.1862zm1.396 3.764-1.051 0.0399q-1.33 0.0532-1.849 0.4256-0.5054 0.3724-0.5054 1.051 0 0.5985 0.3591 0.8778 0.3724 0.2793 0.9443 0.2793 0.8911 0 1.49-0.4921 0.6118-0.5054 0.6118-1.543z"/>
  <path d="m83.02 140q1.21 0 1.809 0.6251t0.5985 1.995v4.642h-1.157v-4.588q0-1.689-1.45-1.689-1.037 0-1.49 0.5985-0.4389 0.5985-0.4389 1.742v3.937h-1.157v-4.588q0-1.689-1.463-1.689-1.077 0-1.49 0.665t-0.4123 1.915v3.697h-1.17v-7.129h0.9443l0.1729 0.9709h0.0665q0.3325-0.5586 0.8911-0.8246 0.5719-0.2793 1.21-0.2793 1.676 0 2.181 1.197h0.0665q0.3591-0.6118 0.9709-0.9044t1.317-0.2926z"/>
  <path d="m87.28 146.6q0-0.4921 0.2394-0.6916t0.5719-0.1995 0.5852 0.1995 0.2527 0.6916q0 0.4788-0.2527 0.6916t-0.5852 0.2128-0.5719-0.2128-0.2394-0.6916z"/>
  <path d="m93.58 140q0.9044 0 1.569 0.399t1.011 1.13q0.3591 0.7182 0.3591 1.689v0.7049h-4.881q0.0266 1.21 0.6118 1.849 0.5985 0.6251 1.662 0.6251 0.6783 0 1.197-0.1197 0.532-0.133 1.091-0.3724v1.024q-0.5453 0.2394-1.077 0.3458-0.532 0.1197-1.264 0.1197-1.024 0-1.796-0.4123t-1.21-1.224q-0.4256-0.8113-0.4256-2.008 0-1.17 0.3857-2.008 0.399-0.8379 1.104-1.29 0.7182-0.4522 1.662-0.4522zm-0.0133 0.9576q-0.8379 0-1.33 0.5453-0.4788 0.532-0.5719 1.49h3.631q-0.0133-0.9044-0.4256-1.463-0.4123-0.5719-1.303-0.5719z"/>
  <path d="m99.56 143.6-2.46-3.485h1.33l1.835 2.687 1.822-2.687h1.317l-2.46 3.485 2.594 3.644h-1.33l-1.942-2.846-1.968 2.846h-1.317z"/>
  <path d="m107.2 140q0.9044 0 1.569 0.399t1.011 1.13q0.3591 0.7182 0.3591 1.689v0.7049h-4.881q0.0266 1.21 0.6118 1.849 0.5985 0.6251 1.662 0.6251 0.6783 0 1.197-0.1197 0.532-0.133 1.091-0.3724v1.024q-0.5453 0.2394-1.077 0.3458-0.532 0.1197-1.264 0.1197-1.024 0-1.796-0.4123t-1.21-1.224q-0.4256-0.8113-0.4256-2.008 0-1.17 0.3857-2.008 0.399-0.8379 1.104-1.29 0.7182-0.4522 1.662-0.4522zm-0.0133 0.9576q-0.8379 0-1.33 0.5453-0.4788 0.532-0.5719 1.49h3.631q-0.0133-0.9044-0.4256-1.463-0.4123-0.5719-1.303-0.5719z"/>
 </g>
</svg>
