<svg version="1.1" viewBox="0 0 304.3 89.04" xmlns="http://www.w3.org/2000/svg">
 <g transform="matrix(.9597 0 0 .939 8.528 1.08)">
  <g stroke-linecap="round" stroke-linejoin="round">
   <path d="m7.009 5.201c-1.423 40.82 32.5 62.25 76.98 71.57m8.48 1.634c18.05 3.195 37.33 4.495 56.12 4.327m10.69-0.2534c21-0.8067 40.94-3.391 57.34-7.133m8.944-2.255c9.591-2.668 17.52-5.764 23.14-9.123" fill="none" stroke="#37aee2" stroke-width="8"/>
   <g transform="translate(259.5,64.48)">
    <g transform="translate(9.277,-140.9)" fill="#fff" stroke="#fff" stroke-width="19.5" aria-label="Telegram">
     <path d="m-235.1 91.95h-23.95c-16.53 1.861-11.68 23.68 1.332 23.17 0.2276 6.82-0.4932 13.73 0.4358 20.48 3.884 8.255 16.62 9.367 21.38 2.654 7.163 5.503 18.13 5.831 25.53 2.576 5.608 2.966 12.34 2.815 16.25-1.439 6.565 3.45 15.84 4.488 21.82 2.177 7.923 12.92 29.98 10.22 34.96 0.5874 6.716 2.448 13.72-0.6035 15.23-7.053 3.394 5.191 9.355 8.714 15.86 7.978 5.746-2.007 8.472 0.9554 15.52-1.769 3.643 1.707 8.426 1.523 12.14 0.3828 3.261-1.623 7.256 1.912 11.22 0.7723 6.452-3.885 8.968-0.3206 13.45 0 17.5-1.051 11.51-35.46 6.714-38.8-5.204-4.898-14-5.867-20.44-2.974-6.748-2.288-15.35-1.735-21.54-0.5603-1.558 0.4139-2.811 1.166-3.816 2.15-7.289-3.746-16.87-4.203-23.84-1.214-2.934-1.636-6.554-2.161-10.2-1.016-5.053-0.1868-8.553-1.38-13.05 0.9472-9.24-3.212-21.33-2.767-28.21 3.625-6.486-6.42-16.3-7.712-23.32-3.047-0.3428-5.914-6.185-10.41-11.49-10.74-6.299-0.03686-11.27 4.267-11.84 9.44-2.891-0.8587-5.698-1.237-8.374-1.21-1.393-4.684-5.574-7.339-11.78-7.122z" color="#000000" color-rendering="auto" dominant-baseline="auto" fill="#fff" image-rendering="auto" shape-rendering="auto" solid-color="#000000" stroke="none" style="font-feature-settings:normal;font-variant-alternates:normal;font-variant-caps:normal;font-variant-ligatures:normal;font-variant-numeric:normal;font-variant-position:normal;isolation:auto;mix-blend-mode:normal;shape-padding:0;text-decoration-color:#000000;text-decoration-line:none;text-decoration-style:solid;text-indent:0;text-orientation:mixed;text-transform:none;white-space:normal"/>
    </g>
    <g transform="translate(9.308,-140.9)" fill="#fff" stroke="#37aee2" stroke-width="5" aria-label="Telegram">
     <path d="m-232.7 105.4h-11.08v27.35h-4.125v-27.35h-11.08v-3.667h26.29z"/>
     <path d="m-212.4 121.5h-17.15q0 2.146 0.6458 3.75 0.6458 1.583 1.771 2.604 1.083 1 2.562 1.5 1.5 0.5 3.292 0.5 2.375 0 4.771-0.9375 2.417-0.9583 3.438-1.875h0.2083v4.271q-1.979 0.8333-4.042 1.396t-4.333 0.5625q-5.792 0-9.042-3.125-3.25-3.146-3.25-8.917 0-5.708 3.104-9.062 3.125-3.354 8.208-3.354 4.708 0 7.25 2.75 2.562 2.75 2.562 7.812zm-3.812-3q-0.0208-3.083-1.562-4.771-1.521-1.688-4.646-1.688-3.146 0-5.021 1.854-1.854 1.854-2.104 4.604z"/>
     <path d="m-201.1 132.7h-3.917v-32.42h3.917z"/>
     <path d="m-172.4 121.5h-17.15q0 2.146 0.6458 3.75 0.6458 1.583 1.771 2.604 1.083 1 2.562 1.5 1.5 0.5 3.292 0.5 2.375 0 4.771-0.9375 2.417-0.9583 3.438-1.875h0.2083v4.271q-1.979 0.8333-4.042 1.396t-4.333 0.5625q-5.792 0-9.042-3.125-3.25-3.146-3.25-8.917 0-5.708 3.104-9.062 3.125-3.354 8.208-3.354 4.708 0 7.25 2.75 2.562 2.75 2.562 7.812zm-3.812-3q-0.0208-3.083-1.562-4.771-1.521-1.688-4.646-1.688-3.146 0-5.021 1.854-1.854 1.854-2.104 4.604z"/>
     <path d="m-144.4 130.1q0 5.917-2.688 8.688t-8.271 2.771q-1.854 0-3.625-0.2708-1.75-0.25-3.458-0.7292v-4h0.2083q0.9583 0.375 3.042 0.9167 2.083 0.5625 4.167 0.5625 2 0 3.312-0.4792t2.042-1.333q0.7292-0.8125 1.042-1.958 0.3125-1.146 0.3125-2.562v-2.125q-1.771 1.417-3.396 2.125-1.604 0.6875-4.104 0.6875-4.167 0-6.625-3-2.438-3.021-2.438-8.5 0-3 0.8333-5.167 0.8542-2.188 2.312-3.771 1.354-1.479 3.292-2.292 1.938-0.8333 3.854-0.8333 2.021 0 3.375 0.4167 1.375 0.3958 2.896 1.229l0.25-1h3.667zm-3.917-3.75v-12.69q-1.562-0.7083-2.917-1-1.333-0.3125-2.667-0.3125-3.229 0-5.083 2.167t-1.854 6.292q0 3.917 1.375 5.938t4.562 2.021q1.708 0 3.417-0.6458 1.729-0.6667 3.167-1.771z"/>
     <path d="m-120.7 113.7h-0.2083q-0.875-0.2083-1.708-0.2917-0.8125-0.1042-1.938-0.1042-1.812 0-3.5 0.8125-1.688 0.7917-3.25 2.062v16.52h-3.917v-23.27h3.917v3.438q2.333-1.875 4.104-2.646 1.792-0.7917 3.646-0.7917 1.021 0 1.479 0.0625 0.4583 0.0417 1.375 0.1875z"/>
     <path d="m-95.24 132.7h-3.896v-2.479q-0.5208 0.3542-1.417 1-0.875 0.625-1.708 1-0.9792 0.4792-2.25 0.7917-1.271 0.3333-2.979 0.3333-3.146 0-5.333-2.083t-2.188-5.312q0-2.646 1.125-4.271 1.146-1.646 3.25-2.583 2.125-0.9375 5.104-1.271 2.979-0.3333 6.396-0.5v-0.6042q0-1.333-0.4792-2.208-0.4583-0.875-1.333-1.375-0.8333-0.4792-2-0.6458-1.167-0.1667-2.438-0.1667-1.542 0-3.438 0.4167-1.896 0.3958-3.917 1.167h-0.2083v-3.979q1.146-0.3125 3.312-0.6875t4.271-0.375q2.458 0 4.271 0.4167 1.833 0.3958 3.167 1.375 1.312 0.9583 2 2.479t0.6875 3.771zm-3.896-5.729v-6.479q-1.792 0.1042-4.229 0.3125-2.417 0.2083-3.833 0.6042-1.688 0.4792-2.729 1.5-1.042 1-1.042 2.771 0 2 1.208 3.021 1.208 1 3.688 1 2.062 0 3.771-0.7917 1.708-0.8125 3.167-1.938z"/>
     <path d="m-52.35 132.7h-3.917v-13.25q0-1.5-0.1458-2.896-0.125-1.396-0.5625-2.229-0.4792-0.8958-1.375-1.354-0.8958-0.4583-2.583-0.4583-1.646 0-3.292 0.8333-1.646 0.8125-3.292 2.083 0.0625 0.4792 0.1042 1.125 0.04167 0.625 0.04167 1.25v14.9h-3.917v-13.25q0-1.542-0.1458-2.917-0.125-1.396-0.5625-2.229-0.4792-0.8958-1.375-1.333-0.8958-0.4583-2.583-0.4583-1.604 0-3.229 0.7917-1.604 0.7917-3.208 2.021v17.38h-3.917v-23.27h3.917v2.583q1.833-1.521 3.646-2.375 1.833-0.8542 3.896-0.8542 2.375 0 4.021 1 1.667 1 2.479 2.771 2.375-2 4.333-2.875 1.958-0.8958 4.188-0.8958 3.833 0 5.646 2.333 1.833 2.312 1.833 6.479z"/>
    </g>
    <path d="m25.1-8.083c2.666 1.458 4.59 0.7029 5.254-2.453l9.509-44.42c0.9734-3.869-1.488-5.624-4.038-4.476l-55.84 21.34c-3.811 1.515-3.789 3.623-0.6946 4.562l14.33 5.683 6.319 17.17 8.798-8.522z" fill="none" stroke="#fff" stroke-width="9.5"/>
   </g>
  </g>
  <g fill="none" stroke-opacity="0">
   <path d="m260 53.37c-0.8156 1.062-1.309-0.1404-1.957-1.913l-5.522-18.01 42.51-25"/>
   <path d="m259.4 53.81 11.44-8.761-9.642-5.761z"/>
   <path d="m284.6 56.39c2.666 1.458 4.59 0.7029 5.254-2.453l9.509-44.42c0.9734-3.869-1.488-5.624-4.038-4.476l-55.84 21.34c-3.811 1.515-3.789 3.623-0.6946 4.562l14.33 4.433 33.17-20.74c1.537-0.9238 2.95-0.454 1.887 0.545-0.0201 0.0189-26.92 24.08-26.94 24.1z"/>
  </g>
  <g stroke="#37aee2" stroke-width="1.5">
   <path d="m260 53.37c-0.8156 1.062-1.309-0.1404-1.957-1.913l-5.522-18.01 42.51-25" fill="#ebece8"/>
   <path d="m259.4 53.81 11.44-8.761-9.642-5.761z" fill="#a9c9dd" stroke-linecap="round" stroke-linejoin="round"/>
   <path d="m284.6 56.39c2.666 1.458 4.59 0.7029 5.254-2.453l9.509-44.42c0.9734-3.869-1.488-5.624-4.038-4.476l-55.84 21.34c-3.811 1.515-3.789 3.623-0.6946 4.562l14.33 4.433 33.17-20.74c1.537-0.9238 2.95-0.454 1.887 0.545-0.0201 0.01893-26.92 24.08-26.94 24.1z" fill="#fff" stroke-linecap="round" stroke-linejoin="round"/>
  </g>
 </g>
</svg>
