<svg width="128" height="128" version="1.1" viewBox="0 0 128 128" xmlns="http://www.w3.org/2000/svg">
 <path d="m23.35 10.03h72.57c11.26 0 20.32 9.063 20.32 20.32v75.48c0 11.26-9.063 20.32-20.32 20.32h-72.57c-11.26 0-20.32-9.063-20.32-20.32v-75.48c0-11.26 9.063-20.32 20.32-20.32z" fill="#118ae0" stroke-linecap="round" stroke-linejoin="round" stroke-width="1.928"/>
 <g transform="matrix(.9765 0 0 1.002 84.72 35.89)">
  <g transform="matrix(35.11,0,0,33.72,6982,-7864)">
   <path d="m-198 232.2-2.42 0.65c-0.0318 0.1059 1e-3 0.4884 0.1036 0.5452l1.901 1.055 0.4007 1.136 0.3724-1.13 0.0186-2.001c0.0162-0.1499-0.1315-0.3463-0.3758-0.2553z" fill="#118ae0" stroke-width="13.38"/>
   <path d="m-198 232.4-1.914 0.6623-1.107 0.1453-0.2188 0.0873 1.41 0.081 0.5217 0.1339 0.2151 0.6354c0.0212 0.0662 0.1041 0.0825 0.1491 0.0295l0.2568-0.3017 0.4592 0.3356-6e-3 1.612 0.1138-0.107 0.2486-1.541 0.0419-1.667c0.0184-0.1348-0.0847-0.1455-0.1716-0.1067zm-0.0857 0.3112-0.9074 0.9077c-0.0105 9e-3 -0.0141 0.0216-0.0146 0.0349l-0.0251 0.3429c-4.6e-4 0.0125-0.0139 0.0142-0.0203 4e-3l-0.1672-0.5009c-5e-3 -0.0223 6.6e-4 -0.0486 0.019-0.0625l1.083-0.7654c0.0242-0.0189 0.0525 0.019 0.0322 0.0401z" fill="#fff" stroke-width="11.36"/>
  </g>
 </g>
 <path d="m8.97 52.61c-1.963 2e-4 -3.555 1.613-3.555 3.603v5.283c1.9e-4 1.99 1.592 3.602 3.555 3.603h12.2v35.81c2e-4 1.99 1.592 3.602 3.555 3.603h5.866c1.963-2e-4 3.555-1.613 3.555-3.603v-35.81h12.2c1.961-1.96e-4 3.552-1.61 3.555-3.597l0.0089-5.283c3e-3 -1.992-1.59-3.608-3.555-3.608z" color="#000000" fill="#fff" style="-inkscape-stroke:none"/>
 <path d="m61.82 71.08c-2.325 0-4.641 0.5206-6.863 1.486-2.268 0.9656-4.282 2.375-5.913 4.18-8.6e-4 9.65e-4 -0.0014 0.0018-3e-3 0.0029-8.74e-4 9.8e-4 -0.0014 0.0018-3e-3 0.0029-1.698 1.87-3.025 4.086-3.977 6.558-3e-3 0.0057-6e-3 0.0112-9e-3 0.01688-0.9873 2.602-1.422 5.523-1.422 8.739 0 5.798 1.388 8.396 4.359 12.13 0.0059 7e-3 0.01185 0.013 0.0166 0.0197 2.955 3.654 7.37 5.643 12.17 5.643 2.353 0 4.445-0.3446 6.369-1.03 0.9041-0.6057 1.399 1.515-0.3814 2.928-0.01882 0.0214-0.03734 0.0429-0.05557 0.0647-0.2219 0.263-0.6178 0.5804-1.422 0.8781-0.697 0.258-1.876 0.4728-3.489 0.4728-1.656 0-3.313-0.2252-5-0.6867-0.01185-3e-3 -0.02223-6e-3 -0.03334-8e-3 -1.911-0.5033-3.289-0.9358-3.925-1.188-0.4124-0.1635-0.8514-0.2475-1.294-0.2477h-0.2972c-1.963 2e-4 -3.555 1.613-3.555 3.603v5.764c6.37e-4 1.614 1.061 3.031 2.595 3.467 1.761 0.5007 3.549 0.8802 5.355 1.143 1.858 0.2871 3.754 0.4334 5.68 0.4334 5.881 0 10.91-1.532 14.31-5.089 3.429-3.582 4.827-8.797 4.827-15.03v-29.72c-2.08e-4 -1.99-1.592-3.602-3.555-3.603h-5.216c-0.4078 0.2099-0.7718 0.4975-1.072 0.8472-0.7919-0.3404-1.589-0.787-2.378-1.019-1.754-0.5439-3.672-0.7571-5.825-0.7571zm0.9777 12.27c0.9871 0 1.973 0.1182 2.98 0.3574 0.02119 0.0049 0.04253 0.0097 0.06387 0.01412 0.3836 0.08368 0.9072 0.3305 1.342 0.47v13.66c-0.7163 0.4386-1.394 0.931-2.205 1.25-9.19e-4 3.57e-4 -0.0014-3.58e-4 -3e-3 0-1.253 0.4794-2.429 0.698-3.6 0.698-2.27 0-2.962-0.4628-3.547-1.334-0.7027-1.047-1.342-3.191-1.342-6.532 0-3.423 0.7499-5.5 1.783-6.724 1.095-1.297 2.261-1.863 4.527-1.863z" color="#000000" fill="#fff" style="-inkscape-stroke:none"/>
</svg>
